<svg width="243" height="55" viewBox="0 0 243 55" fill="none" xmlns="http://www.w3.org/2000/svg">
<path d="M74.1581 54.9836H0L23.0712 11.4335L31.5389 27.1657L31.5729 27.1064L32.3304 28.5195L33.0878 29.9228L38.3981 39.7949L39.8449 38.7474L41.2831 37.6999L35.0536 26.1182L34.2962 24.715L33.5388 23.3018L45.5723 0L74.1581 54.9836Z" fill="black"/>
<path d="M96.3125 19.6523V21.7988H85.5391V19.6523H96.3125ZM85.9492 11.0938V31H83.3105V11.0938H85.9492ZM98.6094 11.0938V31H95.9844V11.0938H98.6094ZM106.129 11.0938V31H103.49V11.0938H106.129ZM125.639 21.0879V28.375C125.393 28.7396 125.001 29.1497 124.463 29.6055C123.925 30.0521 123.182 30.444 122.234 30.7812C121.296 31.1094 120.083 31.2734 118.598 31.2734C117.385 31.2734 116.269 31.0638 115.248 30.6445C114.236 30.2161 113.357 29.5964 112.609 28.7852C111.871 27.9648 111.297 26.9714 110.887 25.8047C110.486 24.6289 110.285 23.2982 110.285 21.8125V20.2676C110.285 18.7819 110.458 17.4557 110.805 16.2891C111.16 15.1224 111.68 14.1335 112.363 13.3223C113.047 12.502 113.885 11.8822 114.879 11.4629C115.872 11.0345 117.012 10.8203 118.297 10.8203C119.819 10.8203 121.09 11.0846 122.111 11.6133C123.141 12.1328 123.943 12.8529 124.518 13.7734C125.101 14.694 125.475 15.7422 125.639 16.918H123C122.882 16.1979 122.645 15.5417 122.289 14.9492C121.943 14.3568 121.446 13.8828 120.799 13.5273C120.152 13.1628 119.318 12.9805 118.297 12.9805C117.376 12.9805 116.579 13.1491 115.904 13.4863C115.23 13.8236 114.674 14.3066 114.236 14.9355C113.799 15.5645 113.471 16.3255 113.252 17.2188C113.042 18.112 112.938 19.1191 112.938 20.2402V21.8125C112.938 22.9609 113.07 23.9863 113.334 24.8887C113.607 25.791 113.995 26.5612 114.496 27.1992C114.997 27.8281 115.594 28.3066 116.287 28.6348C116.989 28.9629 117.764 29.127 118.611 29.127C119.55 29.127 120.311 29.0495 120.895 28.8945C121.478 28.7305 121.934 28.5391 122.262 28.3203C122.59 28.0924 122.84 27.8783 123.014 27.6777V23.2207H118.406V21.0879H125.639ZM143.016 19.6523V21.7988H132.242V19.6523H143.016ZM132.652 11.0938V31H130.014V11.0938H132.652ZM145.312 11.0938V31H142.688V11.0938H145.312ZM164.166 23.9043H159.094V20.7051H164.166C164.95 20.7051 165.588 20.5775 166.08 20.3223C166.572 20.0579 166.932 19.6934 167.16 19.2285C167.388 18.7637 167.502 18.2396 167.502 17.6562C167.502 17.0638 167.388 16.5124 167.16 16.002C166.932 15.4915 166.572 15.0814 166.08 14.7715C165.588 14.4616 164.95 14.3066 164.166 14.3066H160.516V31H156.414V11.0938H164.166C165.725 11.0938 167.06 11.3763 168.172 11.9414C169.293 12.4974 170.15 13.2676 170.742 14.252C171.335 15.2363 171.631 16.362 171.631 17.6289C171.631 18.9141 171.335 20.026 170.742 20.9648C170.15 21.9036 169.293 22.6283 168.172 23.1387C167.06 23.6491 165.725 23.9043 164.166 23.9043ZM187.818 27.8008V31H177.223V27.8008H187.818ZM178.562 11.0938V31H174.461V11.0938H178.562ZM186.438 19.2012V22.3184H177.223V19.2012H186.438ZM187.805 11.0938V14.3066H177.223V11.0938H187.805ZM198.305 14.498L192.891 31H188.529L195.926 11.0938H198.701L198.305 14.498ZM202.803 31L197.375 14.498L196.938 11.0938H199.74L207.178 31H202.803ZM202.557 23.5898V26.8027H192.043V23.5898H202.557ZM213.125 11.0938V31H209.023V11.0938H213.125ZM225.047 11.0938L217.158 20.9238L212.605 25.8184L211.867 21.9355L214.943 17.7246L220.016 11.0938H225.047ZM220.385 31L214.52 21.7988L217.555 19.2559L225.238 31H220.385ZM237.188 25.791C237.188 25.4355 237.133 25.1165 237.023 24.834C236.923 24.5423 236.732 24.278 236.449 24.041C236.167 23.7949 235.77 23.5534 235.26 23.3164C234.749 23.0794 234.089 22.8333 233.277 22.5781C232.375 22.2865 231.518 21.9583 230.707 21.5938C229.905 21.2292 229.194 20.8053 228.574 20.3223C227.964 19.8301 227.48 19.2604 227.125 18.6133C226.779 17.9661 226.605 17.2142 226.605 16.3574C226.605 15.528 226.788 14.776 227.152 14.1016C227.517 13.418 228.027 12.8346 228.684 12.3516C229.34 11.8594 230.115 11.4811 231.008 11.2168C231.91 10.9525 232.899 10.8203 233.975 10.8203C235.442 10.8203 236.723 11.0846 237.816 11.6133C238.91 12.1419 239.758 12.8665 240.359 13.7871C240.97 14.7077 241.275 15.7604 241.275 16.9453H237.201C237.201 16.362 237.078 15.8516 236.832 15.4141C236.595 14.9674 236.23 14.6165 235.738 14.3613C235.255 14.1061 234.645 13.9785 233.906 13.9785C233.195 13.9785 232.603 14.0879 232.129 14.3066C231.655 14.5163 231.299 14.8034 231.062 15.168C230.826 15.5234 230.707 15.9245 230.707 16.3711C230.707 16.7083 230.789 17.0137 230.953 17.2871C231.126 17.5605 231.382 17.8158 231.719 18.0527C232.056 18.2897 232.471 18.513 232.963 18.7227C233.455 18.9323 234.025 19.1374 234.672 19.3379C235.757 19.666 236.709 20.0352 237.529 20.4453C238.359 20.8555 239.051 21.3158 239.607 21.8262C240.163 22.3366 240.583 22.9154 240.865 23.5625C241.148 24.2096 241.289 24.9434 241.289 25.7637C241.289 26.6296 241.12 27.4043 240.783 28.0879C240.446 28.7715 239.958 29.3503 239.32 29.8242C238.682 30.2982 237.921 30.6582 237.037 30.9043C236.153 31.1504 235.164 31.2734 234.07 31.2734C233.086 31.2734 232.115 31.1458 231.158 30.8906C230.201 30.6263 229.331 30.2298 228.547 29.7012C227.772 29.1725 227.152 28.498 226.688 27.6777C226.223 26.8574 225.99 25.8867 225.99 24.7656H230.105C230.105 25.3854 230.201 25.9095 230.393 26.3379C230.584 26.7663 230.853 27.1126 231.199 27.377C231.555 27.6413 231.974 27.8327 232.457 27.9512C232.949 28.0697 233.487 28.1289 234.07 28.1289C234.781 28.1289 235.365 28.0286 235.82 27.8281C236.285 27.6276 236.627 27.3496 236.846 26.9941C237.074 26.6387 237.188 26.2376 237.188 25.791Z" fill="black"/>
<path d="M105.504 44.1973C104.539 43.9199 103.836 43.5801 103.395 43.1777C102.957 42.7715 102.738 42.2715 102.738 41.6777C102.738 41.0059 103.006 40.4512 103.541 40.0137C104.08 39.5723 104.779 39.3516 105.639 39.3516C106.225 39.3516 106.746 39.4648 107.203 39.6914C107.664 39.918 108.02 40.2305 108.27 40.6289C108.523 41.0273 108.65 41.4629 108.65 41.9355H107.52C107.52 41.4199 107.355 41.0156 107.027 40.7227C106.699 40.4258 106.236 40.2773 105.639 40.2773C105.084 40.2773 104.65 40.4004 104.338 40.6465C104.029 40.8887 103.875 41.2266 103.875 41.6602C103.875 42.0078 104.021 42.3027 104.314 42.5449C104.611 42.7832 105.113 43.002 105.82 43.2012C106.531 43.4004 107.086 43.6211 107.484 43.8633C107.887 44.1016 108.184 44.3809 108.375 44.7012C108.57 45.0215 108.668 45.3984 108.668 45.832C108.668 46.5234 108.398 47.0781 107.859 47.4961C107.32 47.9102 106.6 48.1172 105.697 48.1172C105.111 48.1172 104.564 48.0059 104.057 47.7832C103.549 47.5566 103.156 47.248 102.879 46.8574C102.605 46.4668 102.469 46.0234 102.469 45.5273H103.6C103.6 46.043 103.789 46.4512 104.168 46.752C104.551 47.0488 105.061 47.1973 105.697 47.1973C106.291 47.1973 106.746 47.0762 107.062 46.834C107.379 46.5918 107.537 46.2617 107.537 45.8438C107.537 45.4258 107.391 45.1035 107.098 44.877C106.805 44.6465 106.273 44.4199 105.504 44.1973ZM111.24 44.6602V48H110.115V39.4688H113.262C114.195 39.4688 114.926 39.707 115.453 40.1836C115.984 40.6602 116.25 41.291 116.25 42.0762C116.25 42.9043 115.99 43.543 115.471 43.9922C114.955 44.4375 114.215 44.6602 113.25 44.6602H111.24ZM111.24 43.7402H113.262C113.863 43.7402 114.324 43.5996 114.645 43.3184C114.965 43.0332 115.125 42.623 115.125 42.0879C115.125 41.5801 114.965 41.1738 114.645 40.8691C114.324 40.5645 113.885 40.4062 113.326 40.3945H111.24V43.7402ZM124.248 44.0098C124.248 44.8457 124.107 45.5762 123.826 46.2012C123.545 46.8223 123.146 47.2969 122.631 47.625C122.115 47.9531 121.514 48.1172 120.826 48.1172C120.154 48.1172 119.559 47.9531 119.039 47.625C118.52 47.293 118.115 46.8223 117.826 46.2129C117.541 45.5996 117.395 44.8906 117.387 44.0859V43.4707C117.387 42.6504 117.529 41.9258 117.814 41.2969C118.1 40.668 118.502 40.1875 119.021 39.8555C119.545 39.5195 120.143 39.3516 120.814 39.3516C121.498 39.3516 122.1 39.5176 122.619 39.8496C123.143 40.1777 123.545 40.6562 123.826 41.2852C124.107 41.9102 124.248 42.6387 124.248 43.4707V44.0098ZM123.129 43.459C123.129 42.4473 122.926 41.6719 122.52 41.1328C122.113 40.5898 121.545 40.3184 120.814 40.3184C120.104 40.3184 119.543 40.5898 119.133 41.1328C118.727 41.6719 118.518 42.4219 118.506 43.3828V44.0098C118.506 44.9902 118.711 45.7617 119.121 46.3242C119.535 46.8828 120.104 47.1621 120.826 47.1621C121.553 47.1621 122.115 46.8984 122.514 46.3711C122.912 45.8398 123.117 45.0801 123.129 44.0918V43.459ZM129.064 44.5488H127.061V48H125.93V39.4688H128.754C129.715 39.4688 130.453 39.6875 130.969 40.125C131.488 40.5625 131.748 41.1992 131.748 42.0352C131.748 42.5664 131.604 43.0293 131.314 43.4238C131.029 43.8184 130.631 44.1133 130.119 44.3086L132.123 47.9297V48H130.916L129.064 44.5488ZM127.061 43.6289H128.789C129.348 43.6289 129.791 43.4844 130.119 43.1953C130.451 42.9062 130.617 42.5195 130.617 42.0352C130.617 41.5078 130.459 41.1035 130.143 40.8223C129.83 40.541 129.377 40.3984 128.783 40.3945H127.061V43.6289ZM138.756 40.3945H136.014V48H134.895V40.3945H132.158V39.4688H138.756V40.3945ZM142.441 44.1973C141.477 43.9199 140.773 43.5801 140.332 43.1777C139.895 42.7715 139.676 42.2715 139.676 41.6777C139.676 41.0059 139.943 40.4512 140.479 40.0137C141.018 39.5723 141.717 39.3516 142.576 39.3516C143.162 39.3516 143.684 39.4648 144.141 39.6914C144.602 39.918 144.957 40.2305 145.207 40.6289C145.461 41.0273 145.588 41.4629 145.588 41.9355H144.457C144.457 41.4199 144.293 41.0156 143.965 40.7227C143.637 40.4258 143.174 40.2773 142.576 40.2773C142.021 40.2773 141.588 40.4004 141.275 40.6465C140.967 40.8887 140.812 41.2266 140.812 41.6602C140.812 42.0078 140.959 42.3027 141.252 42.5449C141.549 42.7832 142.051 43.002 142.758 43.2012C143.469 43.4004 144.023 43.6211 144.422 43.8633C144.824 44.1016 145.121 44.3809 145.312 44.7012C145.508 45.0215 145.605 45.3984 145.605 45.832C145.605 46.5234 145.336 47.0781 144.797 47.4961C144.258 47.9102 143.537 48.1172 142.635 48.1172C142.049 48.1172 141.502 48.0059 140.994 47.7832C140.486 47.5566 140.094 47.248 139.816 46.8574C139.543 46.4668 139.406 46.0234 139.406 45.5273H140.537C140.537 46.043 140.727 46.4512 141.105 46.752C141.488 47.0488 141.998 47.1973 142.635 47.1973C143.229 47.1973 143.684 47.0762 144 46.834C144.316 46.5918 144.475 46.2617 144.475 45.8438C144.475 45.4258 144.328 45.1035 144.035 44.877C143.742 44.6465 143.211 44.4199 142.441 44.1973ZM154.74 45.7734H151.166L150.363 48H149.203L152.461 39.4688H153.445L156.709 48H155.555L154.74 45.7734ZM151.506 44.8477H154.406L152.953 40.8574L151.506 44.8477ZM164.414 48H163.283L158.988 41.4258V48H157.857V39.4688H158.988L163.295 46.0723V39.4688H164.414V48ZM166.412 48V39.4688H168.82C169.562 39.4688 170.219 39.6328 170.789 39.9609C171.359 40.2891 171.799 40.7559 172.107 41.3613C172.42 41.9668 172.578 42.6621 172.582 43.4473V43.9922C172.582 44.7969 172.426 45.502 172.113 46.1074C171.805 46.7129 171.361 47.1777 170.783 47.502C170.209 47.8262 169.539 47.9922 168.773 48H166.412ZM167.537 40.3945V47.0801H168.721C169.588 47.0801 170.262 46.8105 170.742 46.2715C171.227 45.7324 171.469 44.9648 171.469 43.9688V43.4707C171.469 42.502 171.24 41.75 170.783 41.2148C170.33 40.6758 169.686 40.4023 168.85 40.3945H167.537ZM183.82 48H182.689L178.395 41.4258V48H177.264V39.4688H178.395L182.701 46.0723V39.4688H183.82V48ZM190.635 45.7734H187.061L186.258 48H185.098L188.355 39.4688H189.34L192.604 48H191.449L190.635 45.7734ZM187.4 44.8477H190.301L188.848 40.8574L187.4 44.8477ZM198.885 40.3945H196.143V48H195.023V40.3945H192.287V39.4688H198.885V40.3945ZM206.156 39.4688V45.2695C206.152 46.0742 205.898 46.7324 205.395 47.2441C204.895 47.7559 204.215 48.043 203.355 48.1055L203.057 48.1172C202.123 48.1172 201.379 47.8652 200.824 47.3613C200.27 46.8574 199.988 46.1641 199.98 45.2812V39.4688H201.094V45.2461C201.094 45.8633 201.264 46.3438 201.604 46.6875C201.943 47.0273 202.428 47.1973 203.057 47.1973C203.693 47.1973 204.18 47.0273 204.516 46.6875C204.855 46.3477 205.025 45.8691 205.025 45.252V39.4688H206.156ZM211.061 44.5488H209.057V48H207.926V39.4688H210.75C211.711 39.4688 212.449 39.6875 212.965 40.125C213.484 40.5625 213.744 41.1992 213.744 42.0352C213.744 42.5664 213.6 43.0293 213.311 43.4238C213.025 43.8184 212.627 44.1133 212.115 44.3086L214.119 47.9297V48H212.912L211.061 44.5488ZM209.057 43.6289H210.785C211.344 43.6289 211.787 43.4844 212.115 43.1953C212.447 42.9062 212.613 42.5195 212.613 42.0352C212.613 41.5078 212.455 41.1035 212.139 40.8223C211.826 40.541 211.373 40.3984 210.779 40.3945H209.057V43.6289ZM220.148 44.0566H216.451V47.0801H220.746V48H215.326V39.4688H220.688V40.3945H216.451V43.1367H220.148V44.0566Z" fill="#696969"/>
</svg>
