<svg width="24" height="24" viewBox="0 0 24 24" fill="none" xmlns="http://www.w3.org/2000/svg">
<path d="M21.8699 19.29L12.8699 3.70995C12.7827 3.55605 12.6562 3.42805 12.5034 3.33899C12.3506 3.24993 12.1768 3.203 11.9999 3.203C11.8231 3.203 11.6493 3.24993 11.4965 3.33899C11.3436 3.42805 11.2172 3.55605 11.1299 3.70995L2.12995 19.29C2.04218 19.442 1.99597 19.6144 1.99597 19.79C1.99597 19.9655 2.04218 20.1379 2.12995 20.29C2.21805 20.4426 2.34491 20.5692 2.49769 20.657C2.65047 20.7448 2.82374 20.7907 2.99995 20.79H20.9999C21.1762 20.7907 21.3494 20.7448 21.5022 20.657C21.655 20.5692 21.7818 20.4426 21.8699 20.29C21.9577 20.1379 22.0039 19.9655 22.0039 19.79C22.0039 19.6144 21.9577 19.442 21.8699 19.29ZM4.72995 18.79L11.9999 6.20995L19.2699 18.79H4.72995Z" fill="#130713"/>
</svg>
